FILE "Fushigi no Kuni no Angelique (1996)(NEC Home Electronics)(JP)[FXNHE632].img" BINARY
  TRACK 01 AUDIO
    INDEX 01 00:00:00
  TRACK 02 MODE1/2352
    PREGAP 00:03:00
    INDEX 01 00:55:45
  TRACK 03 MODE1/2352
    INDEX 01 01:01:29
  TRACK 04 MODE1/2352
    INDEX 01 01:06:27
  TRACK 05 MODE1/2352
    INDEX 01 01:32:47
  TRACK 06 MODE1/2352
    INDEX 01 11:54:06
